<svg width="60" height="60" viewBox="0 0 60 60" fill="none" xmlns="http://www.w3.org/2000/svg">
<path d="M0 30C0 13.4315 13.4315 0 30 0C46.5685 0 60 13.4315 60 30C60 46.5685 46.5685 60 30 60C13.4315 60 0 46.5685 0 30Z" fill="#2C72FE"/>
<g clip-path="url(#clip0_200_1421)">
<path d="M22 26H40.584L41.2507 23.3333H24.6667V20.6667H42.96C43.1627 20.6667 43.3627 20.7129 43.5448 20.8018C43.727 20.8907 43.8864 21.0199 44.0111 21.1797C44.1358 21.3395 44.2224 21.5256 44.2644 21.7239C44.3064 21.9222 44.3026 22.1274 44.2533 22.324L40.92 35.6573C40.8478 35.9457 40.6813 36.2016 40.4469 36.3845C40.2126 36.5673 39.9239 36.6667 39.6267 36.6667H20.6667C20.313 36.6667 19.9739 36.5262 19.7239 36.2761C19.4738 36.0261 19.3333 35.687 19.3333 35.3333V19.3333H16.6667V16.6667H20.6667C21.0203 16.6667 21.3594 16.8071 21.6095 17.0572C21.8595 17.3072 22 17.6464 22 18V26ZM22 44.6667C21.2928 44.6667 20.6145 44.3857 20.1144 43.8856C19.6143 43.3855 19.3333 42.7073 19.3333 42C19.3333 41.2928 19.6143 40.6145 20.1144 40.1144C20.6145 39.6143 21.2928 39.3333 22 39.3333C22.7072 39.3333 23.3855 39.6143 23.8856 40.1144C24.3857 40.6145 24.6667 41.2928 24.6667 42C24.6667 42.7073 24.3857 43.3855 23.8856 43.8856C23.3855 44.3857 22.7072 44.6667 22 44.6667ZM38 44.6667C37.2928 44.6667 36.6145 44.3857 36.1144 43.8856C35.6143 43.3855 35.3333 42.7073 35.3333 42C35.3333 41.2928 35.6143 40.6145 36.1144 40.1144C36.6145 39.6143 37.2928 39.3333 38 39.3333C38.7073 39.3333 39.3855 39.6143 39.8856 40.1144C40.3857 40.6145 40.6667 41.2928 40.6667 42C40.6667 42.7073 40.3857 43.3855 39.8856 43.8856C39.3855 44.3857 38.7073 44.6667 38 44.6667Z" fill="white"/>
</g>
<defs>
<clipPath id="clip0_200_1421">
<rect width="32" height="32" fill="white" transform="translate(14 14)"/>
</clipPath>
</defs>
</svg>
