<svg width="16" height="16" viewBox="0 0 16 16" fill="none" xmlns="http://www.w3.org/2000/svg">
<path d="M7.99992 15.1666C7.57992 15.1666 7.18658 15.0067 6.89325 14.7067L5.87992 13.6933C5.79992 13.6133 5.58659 13.5267 5.47992 13.5267H4.03992C3.17325 13.5267 2.47325 12.8266 2.47325 11.9599V10.52C2.47325 10.4133 2.38658 10.2 2.30658 10.12L1.29325 9.10667C0.99992 8.81333 0.833252 8.41998 0.833252 7.99998C0.833252 7.57998 0.993254 7.18662 1.29325 6.89329L2.30658 5.87994C2.38658 5.79994 2.47325 5.58662 2.47325 5.47996V4.04002C2.47325 3.17335 3.17325 2.47328 4.03992 2.47328H5.47992C5.58659 2.47328 5.79992 2.38662 5.87992 2.30662L6.89325 1.29327C7.47992 0.706605 8.51992 0.706605 9.10659 1.29327L10.1199 2.30662C10.1999 2.38662 10.4133 2.47328 10.5199 2.47328H11.9599C12.8266 2.47328 13.5266 3.17335 13.5266 4.04002V5.47996C13.5266 5.58662 13.6133 5.79994 13.6933 5.87994L14.7066 6.89329C14.9999 7.18662 15.1666 7.57998 15.1666 7.99998C15.1666 8.41998 15.0066 8.81333 14.7066 9.10667L13.6933 10.12C13.6133 10.2 13.5266 10.4133 13.5266 10.52V11.9599C13.5266 12.8266 12.8266 13.5267 11.9599 13.5267H10.5199C10.4133 13.5267 10.1999 13.6133 10.1199 13.6933L9.10659 14.7067C8.81325 15.0067 8.41992 15.1666 7.99992 15.1666ZM3.01324 9.41331C3.27991 9.67997 3.47325 10.1467 3.47325 10.52V11.9599C3.47325 12.2733 3.72658 12.5267 4.03992 12.5267H5.47992C5.85325 12.5267 6.31992 12.72 6.58659 12.9866L7.59991 14C7.81325 14.2133 8.18659 14.2133 8.39992 14L9.41325 12.9866C9.67991 12.72 10.1466 12.5267 10.5199 12.5267H11.9599C12.2733 12.5267 12.5266 12.2733 12.5266 11.9599V10.52C12.5266 10.1467 12.7199 9.67997 12.9866 9.41331L13.9999 8.39996C14.1066 8.29329 14.1666 8.15331 14.1666 7.99998C14.1666 7.84664 14.1066 7.70666 13.9999 7.59999L12.9866 6.58665C12.7199 6.31998 12.5266 5.85329 12.5266 5.47996V4.04002C12.5266 3.72668 12.2733 3.47328 11.9599 3.47328H10.5199C10.1466 3.47328 9.67991 3.27999 9.41325 3.01332L8.39992 1.99998C8.18659 1.78664 7.81325 1.78664 7.59991 1.99998L6.58659 3.01332C6.31992 3.27999 5.85325 3.47328 5.47992 3.47328H4.03992C3.72658 3.47328 3.47325 3.72668 3.47325 4.04002V5.47996C3.47325 5.85329 3.27991 6.31998 3.01324 6.58665L1.99992 7.59999C1.89325 7.70666 1.83325 7.84664 1.83325 7.99998C1.83325 8.15331 1.89325 8.29329 1.99992 8.39996L3.01324 9.41331Z" fill="#292D32"/>
<path d="M10.0002 10.6667C9.62691 10.6667 9.3269 10.3667 9.3269 10C9.3269 9.63337 9.6269 9.33337 9.99357 9.33337C10.3602 9.33337 10.6602 9.63337 10.6602 10C10.6602 10.3667 10.3669 10.6667 10.0002 10.6667Z" fill="#292D32"/>
<path d="M6.00659 6.66671C5.63326 6.66671 5.33325 6.36671 5.33325 6.00004C5.33325 5.63337 5.63325 5.33337 5.99992 5.33337C6.36659 5.33337 6.66659 5.63337 6.66659 6.00004C6.66659 6.36671 6.37326 6.66671 6.00659 6.66671Z" fill="#292D32"/>
<path d="M6.00004 10.4999C5.87337 10.4999 5.74671 10.4533 5.64671 10.3533C5.45338 10.16 5.45338 9.83992 5.64671 9.64659L9.64671 5.64659C9.84004 5.45325 10.16 5.45325 10.3534 5.64659C10.5467 5.83992 10.5467 6.15996 10.3534 6.35329L6.35337 10.3533C6.25337 10.4533 6.12671 10.4999 6.00004 10.4999Z" fill="#292D32"/>
</svg>
